<svg width="30" height="30" viewBox="0 0 30 30" fill="none" xmlns="http://www.w3.org/2000/svg">
<path d="M29.5606 27.423C29.8421 27.7082 30 28.0933 30 28.4948C30 28.8962 29.8421 29.2814 29.5606 29.5666C29.274 29.8446 28.891 30 28.4924 30C28.0938 30 27.7108 29.8446 27.4243 29.5666L15 17.081L2.57574 29.5666C2.28919 29.8446 1.90619 30 1.50759 30C1.10899 30 0.72599 29.8446 0.439441 29.5666C0.157926 29.2814 0 28.8962 0 28.4948C0 28.0933 0.157926 27.7082 0.439441 27.423L12.8824 14.9562L0.439441 2.48936C0.20038 2.19709 0.0782114 1.82603 0.0966961 1.44838C0.115181 1.07072 0.272998 0.713469 0.53945 0.446105C0.805902 0.17874 1.16194 0.020383 1.5383 0.001835C1.91467 -0.016713 2.28446 0.105874 2.57574 0.345753L15 12.8313L27.4243 0.345753C27.7155 0.105874 28.0853 -0.016713 28.4617 0.001835C28.8381 0.020383 29.1941 0.17874 29.4606 0.446105C29.727 0.713469 29.8848 1.07072 29.9033 1.44838C29.9218 1.82603 29.7996 2.19709 29.5606 2.48936L17.1176 14.9562L29.5606 27.423Z" fill="black"/>
</svg>
